# xmcd CD database file generated by OrangeCD 5.2
#
# Track frame offsets:
#	150
#	19092
#	30765
#	43825
#	55820
#	68237
#	86782
#	100767
#	113445
#
# Disc length: 1921 seconds
#
# Revision: 2
# Processed by: cddbd v1.5.1PL2 Copyright (c) Steve Scherf et al.
# Submitted via: OrangeCD 5.2
#
DISCID=66077f09
DTITLE=Various Artist - Smokin' Blues
DYEAR=2000
DGENRE=Blues Compilation
TTITLE0=B.B. King - Into The Night
TTITLE1=Bobby "Blue" Bland - Two Steps From The Blues
TTITLE2=Sonny Boy Williamson - Have You Ever Been In Love
TTITLE3=Little Milton - Grits Ain't Groceries
TTITLE4=Little Walter - Key To The Highway
TTITLE5=Muddy Waters - Love Weapon
TTITLE6=Howlin' Wolf - Three Hundred Pounds Of Joy
TTITLE7=Etta James - Next Door To The Blues
TTITLE8=John Lee Hooker - Lets Go Out Tonight
EXTD=
EXTT0=
EXTT1=
EXTT2=
EXTT3=
EXTT4=
EXTT5=
EXTT6=
EXTT7=
EXTT8=
PLAYORDER=
